<svg width="85" height="23" viewBox="0 0 85 23" fill="none" xmlns="http://www.w3.org/2000/svg">
<path d="M75.0145 17.3325C75.4345 17.4626 75.9641 17.5334 76.6027 17.5456L76.9043 15.7696C76.6207 15.7342 76.3869 15.6843 76.2036 15.6188C76.0198 15.5544 75.8754 15.4592 75.7686 15.3349C75.6624 15.2107 75.5882 15.0599 75.547 14.8823C75.5053 14.7047 75.485 14.4858 75.485 14.2252V3.58878L73.3376 3.94397V14.6333C73.3376 15.0953 73.3875 15.5068 73.4885 15.8677C73.5888 16.2287 73.7634 16.5305 74.0116 16.7731C74.2604 17.0157 74.5946 17.2026 75.0145 17.3325Z" fill="#667085"/>
<path fill-rule="evenodd" clip-rule="evenodd" d="M33.0408 8.03878C32.5553 7.86113 31.9578 7.77236 31.2479 7.77236C30.6563 7.77236 30.1005 7.81994 29.5796 7.9145C29.0594 8.00915 28.6631 8.10371 28.3912 8.19836L28.6573 9.93891C28.9172 9.84425 29.2543 9.76126 29.6684 9.68994C30.0826 9.61912 30.5384 9.58372 31.035 9.58372C31.4015 9.58372 31.7066 9.63069 31.9491 9.72524C32.1916 9.82051 32.3865 9.95341 32.5349 10.1252C32.6822 10.2969 32.7861 10.4955 32.8453 10.7201C32.9044 10.9446 32.934 11.1814 32.934 11.4305V11.7851C32.6381 11.7142 32.3598 11.6643 32.0999 11.6341C31.8394 11.6052 31.5912 11.5901 31.3546 11.5901C30.8459 11.5901 30.3574 11.6405 29.8905 11.7409C29.423 11.842 29.0118 12.0073 28.6573 12.2383C28.3024 12.4688 28.0211 12.7683 27.814 13.135C27.6069 13.5019 27.5037 13.9516 27.5037 14.4843C27.5037 15.0409 27.5953 15.5081 27.7786 15.8871C27.9619 16.2661 28.216 16.5737 28.542 16.8105C28.8668 17.0473 29.2606 17.2191 29.7218 17.3254C30.1834 17.4321 30.6915 17.4855 31.2479 17.4855C32.0878 17.4855 32.8423 17.435 33.5105 17.334C34.1787 17.2336 34.6787 17.1477 35.0105 17.0769V11.4478C35.0105 10.9034 34.9485 10.4032 34.8238 9.94763C34.6996 9.492 34.4926 9.10435 34.2032 8.78446C33.9126 8.46478 33.5256 8.21632 33.0408 8.03878ZM32.934 15.6741C32.5906 15.7449 32.0878 15.7803 31.4253 15.7803C30.8813 15.7803 30.4497 15.6828 30.1301 15.4878C29.8105 15.2922 29.6509 14.94 29.6509 14.431C29.6509 14.171 29.7101 13.9545 29.8285 13.7827C29.9463 13.6115 30.1034 13.4786 30.2989 13.3835C30.4937 13.2888 30.7124 13.2238 30.9555 13.1878C31.1973 13.1525 31.4369 13.135 31.6742 13.135C31.9462 13.135 32.1944 13.1525 32.4195 13.1878C32.644 13.2238 32.8157 13.2592 32.934 13.2946V15.6741Z" fill="#667085"/>
<path d="M55.9283 14.4365C56.2422 13.448 56.5345 12.433 56.8065 11.3912C57.078 12.433 57.3762 13.448 57.7016 14.4365C58.0263 15.4255 58.3425 16.3575 58.6493 17.2333H60.3952C60.6441 16.6889 60.8988 16.0672 61.1591 15.3685C61.4201 14.6703 61.6812 13.9245 61.9416 13.1312C62.2027 12.3384 62.4637 11.5037 62.7241 10.628C62.9846 9.75164 63.2398 8.85844 63.4886 7.94667H61.27C61.1626 8.44349 61.0374 8.97917 60.8952 9.55381C60.7525 10.1277 60.6012 10.7139 60.4405 11.3111C60.2798 11.9095 60.1163 12.4922 59.9498 13.0604C59.7833 13.6286 59.6226 14.1497 59.4684 14.6227C59.2914 14.079 59.1168 13.5166 58.9464 12.9362C58.7752 12.3564 58.6157 11.776 58.4678 11.1962C58.3205 10.6158 58.1818 10.0505 58.0519 9.50034C57.9225 8.94965 57.8042 8.43193 57.698 7.94667H56.0473C55.9405 8.43193 55.8193 8.94965 55.683 9.50034C55.5467 10.0505 55.4011 10.6158 55.2469 11.1962C55.0932 11.776 54.9295 12.3564 54.7578 12.9362C54.5862 13.5166 54.411 14.079 54.2335 14.6227C54.067 14.1497 53.9 13.6286 53.734 13.0604C53.5677 12.4922 53.4069 11.9095 53.252 11.3111C53.0972 10.7139 52.9487 10.1277 52.806 9.55381C52.6639 8.97917 52.5392 8.44349 52.4318 7.94667H50.1592C50.4082 8.85844 50.6634 9.75164 50.9238 10.628C51.1843 11.5037 51.4452 12.3384 51.7062 13.1312C51.9667 13.9245 52.2277 14.6703 52.4882 15.3685C52.7492 16.0672 52.998 16.6889 53.2353 17.2333H54.998C55.3054 16.3575 55.6151 15.4255 55.9283 14.4365Z" fill="#667085"/>
<path fill-rule="evenodd" clip-rule="evenodd" d="M63.5783 12.691C63.5783 11.8738 63.699 11.1582 63.942 10.5425C64.1845 9.92673 64.507 9.4148 64.9089 9.00624C65.3109 8.59819 65.7726 8.28998 66.2935 8.08281C66.8137 7.87625 67.3463 7.77236 67.8904 7.77236C69.1681 7.77236 70.1647 8.16935 70.881 8.96211C71.5963 9.75548 71.9547 10.9388 71.9547 12.5134C71.9547 12.6318 71.9513 12.7647 71.9454 12.9127C71.9396 13.0613 71.9303 13.1942 71.9187 13.3126H65.7963C65.8556 14.0583 66.1183 14.6352 66.5858 15.0439C67.0533 15.4518 67.7309 15.6561 68.6183 15.6561C69.1385 15.6561 69.6148 15.6091 70.0469 15.5139C70.4785 15.4193 70.8184 15.3189 71.0672 15.2122L71.3509 16.9701C71.2326 17.0298 71.0701 17.092 70.8631 17.1569C70.6559 17.222 70.4193 17.2811 70.1531 17.334C69.8868 17.3873 69.5997 17.4321 69.2923 17.4675C68.9848 17.5029 68.671 17.5209 68.352 17.5209C67.5354 17.5209 66.826 17.399 66.2221 17.1569C65.6189 16.9144 65.1219 16.5766 64.7314 16.1448C64.341 15.7124 64.051 15.2035 63.8619 14.6173C63.6729 14.0317 63.5783 13.3898 63.5783 12.691ZM69.8073 11.7322C69.8073 11.4363 69.7656 11.1547 69.6826 10.8884C69.5997 10.622 69.479 10.3916 69.319 10.196C69.1594 10.001 68.964 9.84719 68.7337 9.73458C68.5029 9.62196 68.2279 9.56576 67.9083 9.56576C67.5771 9.56576 67.2872 9.62775 67.0388 9.75193C66.79 9.87621 66.58 10.0392 66.4089 10.2406C66.2372 10.442 66.1038 10.6724 66.0093 10.9331C65.9147 11.1936 65.8498 11.46 65.8144 11.7322H69.8073Z" fill="#667085"/>
<path d="M80.9595 17.5456C80.3209 17.5334 79.7913 17.4626 79.3714 17.3325C78.9514 17.2026 78.6173 17.0157 78.3685 16.7731C78.1202 16.5305 77.9456 16.2287 77.8454 15.8677C77.7444 15.5068 77.6945 15.0953 77.6945 14.6333V3.94397L79.8418 3.58878V14.2252C79.8418 14.4858 79.8621 14.7047 79.9039 14.8823C79.9451 15.0599 80.0193 15.2107 80.1254 15.3349C80.2322 15.4592 80.3766 15.5544 80.5604 15.6188C80.7438 15.6843 80.9775 15.7342 81.2612 15.7696L80.9595 17.5456Z" fill="#667085"/>
<path d="M48.589 8.95348C48.8552 9.32602 49.0384 9.77648 49.1394 10.3028C49.2398 10.8298 49.2902 11.4066 49.2902 12.034V17.2545H47.143V12.3713C47.143 11.4009 47.024 10.6998 46.788 10.2674C46.5507 9.83502 46.0959 9.61912 45.4214 9.61912C45.0779 9.61912 44.7526 9.67543 44.4451 9.78804C44.27 9.85216 44.1267 9.91486 44.0014 9.97695V17.2545H41.8547V9.97695C41.7293 9.91486 41.5862 9.85216 41.411 9.78804C41.1035 9.67543 40.7782 9.61912 40.4347 9.61912C39.7602 9.61912 39.3055 9.83502 39.0682 10.2674C38.8321 10.6998 38.7132 11.4009 38.7132 12.3713V17.2545H36.5659V12.034C36.5659 11.4066 36.6164 10.8298 36.7167 10.3028C36.8176 9.77648 37.001 9.32602 37.2671 8.95348C37.5334 8.58024 37.8999 8.29069 38.3675 8.08352C38.835 7.87625 39.4296 7.77236 40.1511 7.77236C40.4347 7.77236 40.7161 7.80198 40.9939 7.86123C41.2717 7.92038 41.5351 7.99464 41.7834 8.08352C42.0322 8.17229 42.2567 8.26979 42.4579 8.37601C42.6471 8.47625 42.8016 8.5705 42.928 8.65998C43.0545 8.5705 43.2091 8.47625 43.3982 8.37601C43.5995 8.26979 43.824 8.17229 44.0728 8.08352C44.321 7.99464 44.5843 7.92038 44.8622 7.86123C45.1401 7.80198 45.4214 7.77236 45.705 7.77236C46.4266 7.77236 47.0211 7.87625 47.4886 8.08352C47.9561 8.29069 48.3227 8.58024 48.589 8.95348Z" fill="#667085"/>
<path fill-rule="evenodd" clip-rule="evenodd" d="M13.3738 21.0933C13.1403 21.0933 12.9068 21.0049 12.7275 20.8282L10.1393 18.2758C9.77719 17.9187 9.77294 17.3353 10.1297 16.9731C10.4869 16.6105 11.0694 16.6071 11.4318 16.9636L13.3761 18.881L20.2743 12.1274C22.0284 10.2489 22.0242 7.20431 20.2619 5.33147C19.5319 4.55576 18.6081 4.08643 17.5903 3.97453C16.2716 3.82884 14.9686 4.31856 14.0209 5.31687C13.8471 5.49999 13.6059 5.60378 13.3534 5.60378C13.101 5.60378 12.8597 5.49999 12.6858 5.31687C11.9153 4.50503 10.8984 4.02191 9.82313 3.95698C8.57018 3.87977 7.33833 4.38237 6.44534 5.33127C5.24907 6.60239 4.8223 8.46336 5.331 10.1881C5.47498 10.6762 5.19645 11.1884 4.70884 11.3323C4.22133 11.4767 3.70938 11.1979 3.5654 10.7099C2.87175 8.35906 3.46167 5.8144 5.10479 4.06858C6.37294 2.72015 8.13824 2.00744 9.93395 2.11833C11.18 2.1934 12.3666 2.65522 13.3529 3.43692C14.6154 2.43375 16.1901 1.96645 17.7913 2.14349C19.2294 2.30145 20.5828 2.98505 21.6022 4.06858C24.0241 6.64226 24.0241 10.8297 21.6025 13.4036C21.5937 13.4126 21.5849 13.4216 21.576 13.4306L14.0177 20.8305C13.8386 21.0056 13.6061 21.0933 13.3738 21.0933Z" fill="#667085"/>
<path fill-rule="evenodd" clip-rule="evenodd" d="M8.66244 16.3335C8.40124 16.3335 8.14035 16.2354 7.93898 16.0393L5.50964 13.67C5.0997 13.2701 5.09118 12.6135 5.49068 12.2034C5.89048 11.7932 6.54682 11.785 6.95656 12.1844L8.66051 13.8463L14.5539 8.06875C14.9626 7.6676 15.619 7.6747 16.0195 8.08376C16.4201 8.49262 16.4135 9.14943 16.0046 9.55018L9.38782 16.037C9.18645 16.2347 8.92434 16.3335 8.66244 16.3335Z" fill="#667085"/>
</svg>
