<svg width="35" height="23" viewBox="0 0 35 23" fill="none" xmlns="http://www.w3.org/2000/svg">
<path d="M12.1702 2.16818C9.79786 2.2066 7.57917 2.78288 5.92716 3.80098C4.29436 4.79987 3.40112 6.11572 3.40112 7.49879C3.40112 8.37282 3.7661 9.23725 4.46725 10.0056C6.12886 8.38243 8.99106 7.38354 12.1702 7.33551C12.2567 7.33551 12.2567 7.24907 12.2567 7.24907V2.25462C12.2567 2.24502 12.2471 2.16818 12.1702 2.16818Z" fill="#667085"/>
<path d="M3.40112 9.01634V12.9927C3.40112 15.8933 7.35826 18.2657 12.2567 18.3233V15.9605C12.2567 15.73 12.4295 15.5475 12.6697 15.5283H12.6793C15.4934 15.4899 18.1732 14.7888 20.2286 13.5594C20.6608 13.3 21.0738 13.0119 21.4484 12.7045V9.11239C21.4484 9.08357 21.4484 9.06436 21.4388 9.03555C20.315 11.4751 16.6268 13.1656 12.4199 13.1656C8.12664 13.1656 4.50566 11.4079 3.40112 9.01634Z" fill="#667085"/>
<path d="M12.6888 15.8741C12.6312 15.8837 12.5928 15.9125 12.5928 15.9605V20.9454C12.5928 21.0126 12.6504 21.0318 12.6696 21.0318H12.6792C15.4934 20.9934 18.1731 20.2923 20.2285 19.0629C22.7257 17.5741 24.1568 15.3554 24.1568 12.9927V9.52539C23.571 11.2254 22.2647 12.743 20.4014 13.8571C18.298 15.1153 15.5606 15.8261 12.6888 15.8741Z" fill="#667085"/>
<path d="M31.3316 14.6255C28.7863 14.6255 26.875 12.6085 26.875 9.91918V9.89037C26.875 7.23947 28.8536 5.16486 31.37 5.16486C32.9356 5.16486 33.848 5.76035 34.5299 6.34623C34.7028 6.49991 34.7989 6.70161 34.7989 6.90331C34.7989 7.27789 34.4819 7.59485 34.1073 7.59485C33.9633 7.59485 33.8192 7.54682 33.6751 7.44117L33.6559 7.42196C32.9452 6.76884 32.2344 6.4807 31.3604 6.4807C29.6123 6.4807 28.2869 7.93101 28.2869 9.85195V9.88077C28.2869 11.7825 29.6412 13.2808 31.3604 13.2808C32.2824 13.2808 32.9932 12.9831 33.7328 12.2723C33.848 12.1475 34.0113 12.0802 34.1746 12.0802C34.5299 12.0802 34.8469 12.3972 34.8469 12.7622C34.8469 12.9543 34.7605 13.1464 34.6164 13.2712C33.6175 14.2221 32.6378 14.6255 31.3316 14.6255Z" fill="#667085"/>
<path d="M40.0815 14.6255C37.5074 14.6255 35.5577 12.6085 35.5577 9.91918V9.89037C35.5577 7.23947 37.5554 5.16486 40.1007 5.16486C42.6747 5.16486 44.6245 7.18184 44.6245 9.87116V9.89998C44.6245 12.5509 42.6267 14.6255 40.0815 14.6255ZM40.0815 6.49991C38.3046 6.49991 36.9695 7.95022 36.9695 9.87116V9.89998C36.9695 11.8401 38.3142 13.3 40.1007 13.3C41.8775 13.3 43.2126 11.8497 43.2126 9.92879V9.89998C43.2126 7.95983 41.8679 6.49991 40.0815 6.49991Z" fill="#667085"/>
<path d="M52.8941 14.539C52.7213 14.539 52.4811 14.4814 52.2698 14.1933L49.8783 11.0814H47.6788V13.8283C47.6788 14.2221 47.3618 14.539 46.968 14.539C46.5935 14.539 46.2765 14.2125 46.2765 13.8283V6.02928C46.2765 5.64509 46.5935 5.31853 46.968 5.31853H50.2432C51.3382 5.31853 52.2698 5.6547 52.8749 6.25019C53.3456 6.72082 53.6145 7.39315 53.6145 8.12311V8.15192C53.6145 9.48697 52.8269 10.4378 51.4342 10.8124L53.4032 13.3481C53.4896 13.4441 53.6049 13.6074 53.6049 13.8379C53.6049 14.2125 53.2687 14.539 52.8941 14.539ZM47.6692 9.78472H50.1472C51.3862 9.78472 52.1834 9.16041 52.1834 8.19034V8.16152C52.1834 7.20105 51.4438 6.64398 50.1568 6.64398H47.6692V9.78472Z" fill="#667085"/>
<path d="M58.7242 14.5775H58.6762C58.3208 14.5775 58.0519 14.3854 57.9078 14.03L54.5365 6.25979C54.4885 6.16375 54.4693 6.0773 54.4693 5.95244C54.4693 5.57786 54.7959 5.2609 55.1801 5.2609C55.4874 5.2609 55.7563 5.453 55.8812 5.76035L58.7146 12.5413L61.5576 5.73153C61.6728 5.49142 61.913 5.2513 62.2395 5.2513C62.6237 5.2513 62.9311 5.55865 62.9311 5.93323C62.9311 6.02928 62.9118 6.12533 62.883 6.21177L59.4926 14.0396C59.2909 14.4814 58.9643 14.5775 58.7242 14.5775Z" fill="#667085"/>
<path d="M70.8069 14.4814H65.313C64.9384 14.4814 64.6215 14.1549 64.6215 13.7707V6.02928C64.6215 5.64509 64.9384 5.31853 65.313 5.31853H70.7397C71.1047 5.31853 71.3928 5.61628 71.3928 5.97165C71.3928 6.33663 71.0951 6.62477 70.7397 6.62477H66.0238V9.18923H70.1826C70.538 9.18923 70.8357 9.48697 70.8357 9.84235C70.8357 10.2073 70.538 10.4955 70.1826 10.4955H66.0238V13.1368H70.8069C71.1719 13.1368 71.46 13.4345 71.46 13.7899C71.46 14.1453 71.1719 14.4814 70.8069 14.4814Z" fill="#667085"/>
<path d="M78.9613 14.4814H73.9284C73.5539 14.4814 73.2369 14.1549 73.2369 13.7707V5.97165C73.2369 5.58746 73.5539 5.2609 73.9284 5.2609C74.3222 5.2609 74.6392 5.57786 74.6392 5.97165V13.156H78.9613C79.3263 13.156 79.6144 13.4537 79.6144 13.8283C79.6144 14.1837 79.3263 14.4814 78.9613 14.4814Z" fill="#667085"/>
</svg>
