<svg width="84" height="30" viewBox="0 0 84 30" fill="none" xmlns="http://www.w3.org/2000/svg">
<path d="M17.099 3.72369C19.3439 4.72296 21.3334 6.26154 21.4121 6.32268L21.4145 6.32456C21.0976 5.07102 20.868 4.40005 20.868 4.40005C21.5732 4.7837 22.4157 5.27765 23.2446 5.7933L23.4285 5.90821C24.744 6.73377 25.9965 7.59772 26.5764 8.1422C27.1399 8.11587 27.5907 7.97429 27.8797 7.8533C28.3723 7.64705 28.7865 8.1537 28.9432 8.66913C29.099 9.18181 29.2866 9.97317 29.2952 10.8314C29.3049 11.7883 29.0925 12.6151 28.664 13.2889C27.8525 14.5651 26.2767 15.4295 24.576 16.3162L24.3865 16.4148L24.2914 16.4643C22.4049 17.4452 20.8312 18.4406 19.6011 20.2716C18.9658 21.2173 18.4691 22.2717 18.1403 23.3662C17.7894 24.5316 17.5122 25.4763 16.7238 25.4763C16.0102 25.4763 15.5845 24.5571 15.2627 24.038C14.6438 23.0396 13.8739 21.798 12.6276 21.6929C11.5206 21.5289 10.612 21.9387 9.95542 22.4801C9.63093 22.7476 9.36212 23.052 9.15607 23.3436C8.9715 23.5644 8.79764 23.7908 8.62862 24.0111C8.11216 24.6844 7.66601 25.266 7.07659 25.4347C6.98024 25.4623 6.88543 25.4763 6.7947 25.4763C6.73007 25.4763 6.65703 25.4688 6.58018 25.4486L6.54146 25.4373L6.53992 25.4397C4.68233 24.8955 4.58648 21.4986 4.58648 21.4986C3.69338 21.7113 2.77116 22.2986 2.77116 22.2986C3.6028 19.4496 5.19685 17.5877 5.19685 17.5877C4.8492 17.5605 4.45759 17.5674 4.07285 17.5918L3.96316 17.5993C2.99663 17.6688 2.10474 17.8391 2.10474 17.8391C4.58648 14.6454 6.26119 13.4749 6.26119 13.4749C4.94636 12.9006 3.26691 12.6069 3.26691 12.6069C6.28993 10.8613 9.28979 10.0071 9.28979 10.0071C8.6364 9.39025 6.28451 8.56086 6.28451 8.56086C6.74368 8.42876 7.28063 8.30756 7.8389 8.19886L7.99164 8.16953C8.09377 8.15018 8.19643 8.13125 8.29928 8.11275L8.45367 8.08532C8.53748 8.07061 8.62131 8.05619 8.70497 8.04206L8.83032 8.02108C8.85118 8.01762 8.87203 8.01418 8.89286 8.01075L9.01758 7.99044C10.6146 7.7326 12.0656 7.58524 12.0656 7.58524C11.284 6.92639 9.5152 6.2091 9.5152 6.2091C10.5112 6.17511 11.4019 6.16288 12.1526 6.16195L12.3601 6.16198C13.8312 6.16423 14.7117 6.2091 14.7117 6.2091C14.1623 5.45404 12.7461 4.46596 12.7461 4.46596C15.6949 4.74335 17.7969 5.47511 17.7969 5.47511C17.7745 5.29596 17.6488 4.96037 17.5101 4.6305L17.4737 4.54468C17.2907 4.11732 17.099 3.72369 17.099 3.72369ZM12.3539 22.2951C12.2663 22.5292 12.1679 22.7826 12.0631 23.0362C12.0484 23.0717 12.0336 23.1073 12.0188 23.1428L11.9738 23.2494C11.5893 24.1546 11.1392 25.0281 10.6565 25.1043C10.6256 25.1091 10.5941 25.1116 10.563 25.1116C10.1799 25.1116 9.83633 24.758 9.5152 24.0319C10.08 23.2356 11.2007 22.3082 12.3539 22.2951ZM21.3085 19.4496C20.9924 20.6348 20.9502 21.8251 20.9165 22.7814L20.9165 22.7824C20.8947 23.4006 20.8758 23.9345 20.7876 24.3231C20.6694 24.8436 20.4104 25.1076 20.0176 25.1076L20.0042 25.1075C19.6252 25.1013 19.2225 24.7766 18.7812 24.1186C19.0413 22.6288 20.0706 20.7258 21.3085 19.4496ZM38.8969 7.81497C40.1587 7.81497 41.3924 8.37049 42.2195 9.26833C43.0455 10.165 43.5565 11.4036 43.5565 12.7705C43.5565 14.1375 43.0455 15.3758 42.2195 16.2725C41.3924 17.1701 40.1587 17.7258 38.8969 17.7258C37.9727 17.7258 37.003 17.4396 36.3274 16.8017L36.3293 19.8415C36.331 22.3973 34.3361 22.0098 33.874 21.9838C33.7169 21.975 33.594 21.9413 33.5087 21.8573C33.4234 21.7733 33.3804 21.6527 33.3804 21.4975L33.3741 8.32322C33.3741 8.1647 33.418 8.03985 33.506 7.95343C33.5938 7.86677 33.7198 7.82356 33.8815 7.82356H35.6166C35.7783 7.82356 35.9044 7.86677 35.9921 7.95343C36.0801 8.03985 36.122 8.16351 36.124 8.32322L36.1305 8.8267C36.5196 8.50561 36.9516 8.25614 37.4083 8.08521C37.884 7.90759 38.387 7.81497 38.8969 7.81497ZM73.151 7.80231C73.2826 7.80231 73.3946 7.83788 73.4806 7.90425C73.5665 7.97086 73.6296 8.07256 73.6829 8.19789L76.161 13.9947L77.9388 8.21412C77.9768 8.07565 78.0437 7.98079 78.1351 7.91107C78.2237 7.8428 78.3374 7.80231 78.4706 7.80231H80.5213C80.6959 7.80231 80.8193 7.85291 80.8922 7.94506C80.9645 8.0408 80.9743 8.17449 80.9205 8.35258L78.1623 17.0094L77.098 20.3683L76.6912 21.6596C76.6461 21.8031 76.5721 21.9038 76.471 21.9604L76.4416 21.975C76.3312 22.0199 76.2138 22.0134 76.0756 21.9795C75.6286 21.8692 73.5556 21.6362 74.3849 19.2153L74.8765 17.779L74.765 17.5L74.2261 16.2189L70.8501 8.37598C70.7762 8.21316 70.8028 8.06491 70.8691 7.96393C70.9382 7.85865 71.0595 7.80542 71.2302 7.80231H73.151ZM8.49528 15.8782L6.18335 19.3584L8.36193 17.3665L8.49528 15.8782ZM60.212 7.81616C60.3142 7.81735 60.3969 7.85578 60.4573 7.91786C60.5464 8.00881 60.5889 8.13176 60.5889 8.29076V10.5855C60.5889 10.7411 60.5562 10.8578 60.4872 10.9356C60.4208 11.0132 60.3224 11.0524 60.194 11.0524C59.9145 11.0426 59.6475 11.0717 59.3876 11.1398C59.1309 11.2076 58.897 11.3246 58.6931 11.4833C58.4892 11.6454 58.3255 11.8631 58.2059 12.1283C58.0851 12.3976 58.0237 12.7247 58.022 13.1138L58.0084 15.561C57.9943 18.1169 56.0153 17.7297 55.5532 17.7034C55.3956 17.6945 55.2732 17.6614 55.1878 17.5771C55.1022 17.4928 55.0593 17.3728 55.0593 17.2173V8.30985C55.0593 8.15444 55.1022 8.03436 55.1878 7.95009C55.2734 7.86581 55.3954 7.8238 55.5532 7.8238H57.5277C57.686 7.8238 57.8078 7.86581 57.8932 7.95009C57.9791 8.03436 58.022 8.1542 58.022 8.30985V8.79901C58.2592 8.38505 58.8002 7.7973 60.212 7.81616ZM66.0999 7.80231C68.3306 7.80231 70.1986 9.154 70.7897 11.1066C70.9045 11.4258 70.7136 11.6325 70.3895 11.6325H68.2925C68.0446 11.6325 67.8727 11.5198 67.7205 11.3133C67.3773 10.844 66.7862 10.5809 66.0999 10.5809C64.8605 10.5809 63.9072 11.4635 63.9072 12.7588C63.9072 14.0544 64.8605 14.9367 66.0999 14.9367C66.7862 14.9367 67.3773 14.6739 67.7205 14.2234C67.8727 13.9981 68.025 13.8854 68.2925 13.8854H70.3895C70.7136 13.8854 70.9045 14.0919 70.7897 14.4111C70.1986 16.3637 68.3306 17.7156 66.0999 17.7156C63.2019 17.7156 61.0473 15.5563 61.0473 12.7588C61.0473 9.96137 63.2019 7.80231 66.0999 7.80231ZM49.4656 7.80685C50.1626 7.80995 50.8023 7.93457 51.3854 8.18118C51.968 8.42755 52.4717 8.7737 52.9027 9.21678C53.3301 9.66298 53.6628 10.1836 53.8971 10.7826C54.1316 11.3816 54.2521 12.0367 54.2552 12.7478C54.2552 12.8696 54.2521 12.988 54.2424 13.1004C54.2361 13.2157 54.2266 13.3282 54.2172 13.4404C54.1983 13.5901 54.141 13.6992 54.0526 13.7679C53.9638 13.8367 53.8465 13.8708 53.7039 13.8708H47.356C47.4763 14.239 47.6443 14.5383 47.8659 14.7692C48.0877 14.9969 48.3476 15.1624 48.6387 15.2684C48.9335 15.3743 49.247 15.4242 49.5798 15.4242C49.8489 15.4211 50.1085 15.3805 50.3558 15.2965C50.5997 15.2122 50.8118 15.0998 50.9861 14.9563C51.078 14.8816 51.1699 14.8222 51.2586 14.7785C51.3505 14.735 51.455 14.7131 51.5752 14.7131L53.3999 14.6945C53.5742 14.6976 53.7008 14.7474 53.7769 14.8441C53.8497 14.9408 53.8528 15.0657 53.7801 15.2184C53.5299 15.7613 53.197 16.2166 52.7823 16.5816C52.3672 16.9497 51.8857 17.224 51.3376 17.4114C50.7897 17.5952 50.1912 17.689 49.5417 17.689C48.7498 17.6857 48.037 17.558 47.4036 17.3083C46.767 17.0588 46.2251 16.7127 45.7754 16.2634C45.3223 15.8174 44.9771 15.2932 44.7364 14.6976C44.4957 14.0986 44.3752 13.4497 44.372 12.7478C44.3752 12.046 44.4988 11.3971 44.7458 10.7984C44.9929 10.2025 45.3412 9.67848 45.7943 9.23233C46.2443 8.78325 46.7827 8.43686 47.4036 8.18738C48.0244 7.93791 48.7117 7.80995 49.4656 7.80685ZM15.1175 13.212L9.88021 15.7132L14.2453 14.6454L15.1175 13.212ZM10.4323 12.6069L6.28451 15.582L9.66388 14.0945L10.4323 12.6069ZM38.8605 10.5613C37.644 10.5613 36.658 11.5387 36.658 12.7442C36.658 13.9501 37.644 14.9274 38.8605 14.9274C40.0767 14.9274 41.0627 13.9501 41.0627 12.7442C41.0627 11.5387 40.0767 10.5613 38.8605 10.5613ZM19.8155 11.7346L15.1631 12.2356L18.5641 12.4348L19.8155 11.7346ZM49.4467 10.2961C48.9112 10.2992 48.4615 10.4209 48.1068 10.6673C47.7488 10.9106 47.4955 11.2694 47.3466 11.7373H51.4169C51.3156 11.3847 51.1635 11.1008 50.9607 10.8888C50.7614 10.6797 50.527 10.5269 50.2639 10.4333C50.0009 10.3398 49.7286 10.293 49.4467 10.2961ZM14.7117 10.3692L10.0593 10.8701L13.4782 11.1958L14.7117 10.3692ZM21.2648 9.78604L17.7969 10.5214L20.4952 10.3692L21.2648 9.78604ZM13.3847 8.56086L16.9914 9.48368L18.5641 8.96152L13.3847 8.56086ZM17.099 6.78266L20.0176 8.1422L21.4145 7.8533L17.099 6.78266Z" fill="#667085"/>
</svg>
