<svg width="83" height="25" viewBox="0 0 83 25" fill="none" xmlns="http://www.w3.org/2000/svg">
<path d="M14.32 2.83813L17.5902 4.98575V15.7238C17.5414 19.3845 14.4176 22.2155 11.8795 22.2155C14.3688 20.7024 15.0033 18.506 15.0033 16.3584V6.2548L14.32 5.81551L13.6855 6.2548V16.5048L13.6847 16.6012C13.6327 19.7787 11.0175 22.3619 7.82833 22.3619C4.6069 22.3619 1.97119 19.7262 1.97119 16.5048V15.8703C1.97119 15.2357 2.60571 14.5524 2.60571 13.9179C2.60571 13.4786 2.31286 12.9905 2.11762 12.5512C2.02 12.4048 1.97119 12.1607 1.97119 11.9655C1.97119 11.2334 2.5569 10.6476 3.24024 10.6476C3.97238 10.6476 4.55809 11.2334 4.55809 11.9655C4.55809 12.1607 4.50928 12.356 4.41166 12.5512C4.21643 12.9905 3.92357 13.4786 3.92357 13.9179C3.92357 14.5524 4.55809 15.2357 4.55809 15.8703V16.5048L4.55866 16.5657C4.58527 18.0028 5.55258 19.1954 6.85214 19.6286C6.21761 18.75 5.87595 17.6762 5.87595 16.5048V15.8703C5.87595 15.2357 6.51047 14.5524 6.51047 13.9179C6.51047 13.4786 6.21761 12.9905 6.02238 12.5512C5.92476 12.4048 5.87595 12.1607 5.87595 11.9655C5.87595 11.2334 6.41285 10.6476 7.14499 10.6476C7.87713 10.6476 8.46285 11.2334 8.46285 11.9655C8.46285 12.1607 8.41404 12.356 8.31642 12.5512C8.12118 12.9905 7.82833 13.4786 7.82833 13.9179C7.82833 14.5524 8.46285 15.2357 8.46285 15.8703V16.5048C8.46285 17.5298 8.90213 18.506 9.68309 19.1405C10.5128 18.5548 11.0497 17.5786 11.0497 16.5048V4.98575L14.32 2.83813ZM3.28905 7.13337C4.01688 7.13337 4.6069 7.72339 4.6069 8.45122C4.6069 9.17905 4.01688 9.76908 3.28905 9.76908C2.56122 9.76908 1.97119 9.17905 1.97119 8.45122C1.97119 7.72339 2.56122 7.13337 3.28905 7.13337ZM7.1938 7.08456C7.92163 7.08456 8.51166 7.67458 8.51166 8.40241C8.51166 9.13024 7.92163 9.72027 7.1938 9.72027C6.46597 9.72027 5.87595 9.13024 5.87595 8.40241C5.87595 7.67458 6.46597 7.08456 7.1938 7.08456ZM3.28905 3.61909C4.01688 3.61909 4.6069 4.20911 4.6069 4.93694C4.6069 5.66477 4.01688 6.2548 3.28905 6.2548C2.56122 6.2548 1.97119 5.66477 1.97119 4.93694C1.97119 4.20911 2.56122 3.61909 3.28905 3.61909ZM7.1938 3.57028C7.92163 3.57028 8.51166 4.1603 8.51166 4.88813C8.51166 5.61596 7.92163 6.20599 7.1938 6.20599C6.46597 6.20599 5.87595 5.61596 5.87595 4.88813C5.87595 4.1603 6.46597 3.57028 7.1938 3.57028Z" fill="#667085"/>
<path d="M47.3153 10.1595H45.8022V12.0631H47.3153C47.9499 12.0631 48.3403 11.6726 48.3403 11.0869C48.3403 10.5012 47.901 10.1595 47.3153 10.1595ZM60.4451 10.0131C59.8105 10.0131 59.3713 10.306 59.176 10.9405C59.0784 11.1845 59.0296 11.5262 59.0296 12.6C59.0296 13.6738 59.0784 14.0155 59.176 14.2595C59.3713 14.8452 59.8105 15.1869 60.4451 15.1869C61.0796 15.1869 61.5189 14.8941 61.7141 14.2595C61.8117 14.0155 61.8605 13.6738 61.8605 12.6C61.8605 11.5262 61.8117 11.1845 61.7141 10.9405C61.5677 10.306 61.1284 10.0131 60.4451 10.0131ZM79.8712 8.79287C79.9688 8.79287 80.0665 8.89049 80.0665 8.98811V9.91549C80.0665 10.0131 79.9688 10.1107 79.8712 10.1107H76.5522V11.8679H79.3343C79.4319 11.8679 79.5296 11.9655 79.5296 12.0631V12.9905C79.5296 13.0881 79.4319 13.1857 79.3343 13.1857H76.5522V14.9917H79.8712C79.9688 14.9917 80.0665 15.0893 80.0665 15.1869V16.1143C80.0665 16.2119 79.9688 16.3095 79.8712 16.3095H75.2831C75.1855 16.3095 75.0879 16.2119 75.0879 16.1143V8.98811C75.0879 8.89049 75.1855 8.79287 75.2831 8.79287H79.8712ZM66.3022 8.79287C66.3998 8.79287 66.4974 8.89049 66.4974 8.98811V16.1631C66.4974 16.2607 66.3998 16.3583 66.3022 16.3583H65.2284C65.1308 16.3583 65.0332 16.2607 65.0332 16.1631V8.98811C65.0332 8.89049 65.1308 8.79287 65.2284 8.79287H66.3022ZM51.9034 8.79287C52.001 8.79287 52.0987 8.84168 52.1475 8.98811L53.7094 14.0155L55.2225 8.98811C55.2713 8.89049 55.3201 8.84168 55.4665 8.84168H56.4915C56.5403 8.84168 56.5891 8.89049 56.6379 8.89049C56.6867 8.9393 56.6867 8.98811 56.6379 9.03692L54.2951 16.2119C54.2463 16.3095 54.1975 16.3583 54.0998 16.3583H53.2213C53.1237 16.3583 53.026 16.3095 53.026 16.2119L50.732 9.03692C50.732 8.98811 50.732 8.9393 50.732 8.89049C50.7808 8.84168 50.8296 8.84168 50.8784 8.84168L51.9034 8.79287ZM47.3153 8.79287C48.7308 8.79287 49.7558 9.76906 49.7558 11.0869C49.7558 12.0143 49.2677 12.7952 48.3891 13.1857L49.9022 16.1143C49.951 16.1631 49.951 16.2607 49.9022 16.3095C49.8534 16.3583 49.8046 16.4071 49.7558 16.4071H48.5844C48.4868 16.4071 48.3891 16.3583 48.3403 16.2607L46.9737 13.4298H45.8022V16.2119C45.8022 16.3095 45.7046 16.4071 45.607 16.4071H44.5332C44.4356 16.4071 44.338 16.3095 44.338 16.2119V8.98811C44.338 8.89049 44.4356 8.79287 44.5332 8.79287H47.3153ZM42.4832 8.79287C42.5808 8.79287 42.6784 8.89049 42.6784 8.98811V9.91549C42.6784 10.0131 42.5808 10.1107 42.4832 10.1107H39.1642V11.8679H41.9463C42.0439 11.8679 42.1415 11.9655 42.1415 12.0631V12.9905C42.1415 13.0881 42.0439 13.1857 41.9463 13.1857H39.1642V14.9917H42.4832C42.5808 14.9917 42.6784 15.0893 42.6784 15.1869V16.1143C42.6784 16.2119 42.5808 16.3095 42.4832 16.3095H37.8951C37.7975 16.3095 37.6999 16.2119 37.6999 16.1143V8.98811C37.6999 8.89049 37.7975 8.79287 37.8951 8.79287H42.4832ZM71.0367 8.69525C72.2081 8.69525 73.1355 9.28096 73.5748 10.3548C73.6236 10.4524 73.5748 10.55 73.4772 10.5988L72.5498 11.0381C72.501 11.0869 72.4522 11.0869 72.4034 11.0381C72.3546 11.0381 72.3058 10.9893 72.3058 10.9405C72.0129 10.3548 71.6224 10.0619 71.0367 10.0619C70.4022 10.0619 70.0117 10.3548 69.8165 10.9893C69.7189 11.2822 69.6701 11.575 69.6701 12.6488V12.7952C69.6701 13.7714 69.7189 14.0643 69.8165 14.3083C70.0117 14.9429 70.451 15.2357 71.0367 15.2357C71.6224 15.2357 72.0617 14.9429 72.3058 14.3083C72.3058 14.2595 72.3546 14.2107 72.4034 14.2107C72.4522 14.2107 72.501 14.2107 72.5498 14.2107L73.4772 14.65C73.5748 14.6988 73.6236 14.7964 73.5748 14.8941C73.1355 15.9191 72.2081 16.5536 71.0367 16.5536C69.7189 16.5536 68.7915 15.8702 68.401 14.6988C68.2546 14.2107 68.2058 13.8202 68.2058 12.6488V12.5024C68.2058 11.4774 68.2546 11.0869 68.401 10.5988C68.7915 9.37858 69.7189 8.69525 71.0367 8.69525ZM33.307 8.69525C34.1856 8.69525 35.113 8.98811 35.7475 9.4762C35.8451 9.57382 35.8451 9.62263 35.7963 9.76906L35.2594 10.55C35.1618 10.6476 35.0642 10.6476 35.0153 10.5988C34.4296 10.2083 33.8927 10.0131 33.307 10.0131C32.6725 10.0131 32.2332 10.3548 32.2332 10.8917C32.2332 11.2333 32.3796 11.6238 33.5023 11.8191L33.8927 11.8679C35.4058 12.0631 36.138 12.8441 36.138 14.1131C36.138 15.5774 35.0642 16.5048 33.307 16.5048C32.282 16.5048 31.2082 16.1143 30.5737 15.4798C30.4761 15.3821 30.4761 15.2845 30.5249 15.1869L31.2082 14.406C31.257 14.3571 31.3058 14.3571 31.3546 14.3571C31.4034 14.3571 31.4523 14.3571 31.5011 14.406C31.9404 14.7476 32.6237 15.1869 33.4534 15.1869C34.2344 15.1869 34.7225 14.7964 34.7225 14.2107C34.7225 13.8202 34.5761 13.4298 33.4534 13.2833L33.063 13.2345C31.5499 13.0393 30.7689 12.2583 30.7689 11.0381C30.7201 9.62263 31.7939 8.69525 33.307 8.69525ZM24.7166 8.79287C24.8142 8.79287 24.9118 8.89049 24.9118 8.98811V13.6738C24.9118 14.6012 25.3999 15.1869 26.2296 15.1869C27.0594 15.1869 27.5963 14.6012 27.5963 13.6738V8.98811C27.5963 8.89049 27.6939 8.79287 27.7915 8.79287H28.8165C28.9142 8.79287 29.0118 8.89049 29.0118 8.98811V13.6738C29.0118 15.3333 27.8892 16.456 26.2296 16.456C24.5701 16.456 23.4475 15.3333 23.4475 13.6738V8.98811C23.4475 8.89049 23.5451 8.79287 23.6427 8.79287H24.7166ZM60.4451 8.69525C61.8117 8.69525 62.7391 9.32977 63.1296 10.55C63.276 11.0381 63.3248 11.4286 63.3248 12.6C63.3248 13.7714 63.276 14.1619 63.1296 14.65C62.7391 15.8214 61.8117 16.5048 60.4451 16.5048C59.1272 16.5048 58.151 15.8702 57.7606 14.65C57.6141 14.1619 57.5653 13.7714 57.5653 12.6V12.4536C57.5653 11.3798 57.6141 10.9893 57.7606 10.55C58.1998 9.32977 59.1272 8.69525 60.4451 8.69525Z" fill="#667085"/>
</svg>
