<svg width="42" height="43" viewBox="0 0 42 43" fill="none" xmlns="http://www.w3.org/2000/svg">
<path d="M31.6641 19.5367C32.5702 19.5367 33.3047 18.8022 33.3047 17.8961C33.3047 16.99 32.5702 16.2555 31.6641 16.2555C30.758 16.2555 30.0234 16.99 30.0234 17.8961C30.0234 18.8022 30.758 19.5367 31.6641 19.5367Z" fill="#1C4A97"/>
<path d="M35.4375 3.95081H33.3047V2.31018C33.3047 1.40406 32.5702 0.669556 31.6641 0.669556C30.7579 0.669556 30.0234 1.40406 30.0234 2.31018V3.95081H22.5586V2.31018C22.5586 1.40406 21.8241 0.669556 20.918 0.669556C20.0119 0.669556 19.2773 1.40406 19.2773 2.31018V3.95081H11.8945V2.31018C11.8945 1.40406 11.16 0.669556 10.2539 0.669556C9.34779 0.669556 8.61328 1.40406 8.61328 2.31018V3.95081H6.5625C2.94394 3.95081 0 6.89474 0 10.5133V36.1071C0 39.7256 2.94394 42.6696 6.5625 42.6696H19.1133C20.0194 42.6696 20.7539 41.935 20.7539 41.0289C20.7539 40.1228 20.0194 39.3883 19.1133 39.3883H6.5625C4.75322 39.3883 3.28125 37.9163 3.28125 36.1071V10.5133C3.28125 8.70402 4.75322 7.23206 6.5625 7.23206H8.61328V8.87268C8.61328 9.7788 9.34779 10.5133 10.2539 10.5133C11.16 10.5133 11.8945 9.7788 11.8945 8.87268V7.23206H19.2773V8.87268C19.2773 9.7788 20.0119 10.5133 20.918 10.5133C21.8241 10.5133 22.5586 9.7788 22.5586 8.87268V7.23206H30.0234V8.87268C30.0234 9.7788 30.7579 10.5133 31.6641 10.5133C32.5702 10.5133 33.3047 9.7788 33.3047 8.87268V7.23206H35.4375C37.2468 7.23206 38.7188 8.70402 38.7188 10.5133V19.8649C38.7188 20.771 39.4533 21.5055 40.3594 21.5055C41.2655 21.5055 42 20.771 42 19.8649V10.5133C42 6.89474 39.0561 3.95081 35.4375 3.95081Z" fill="#1C4A97"/>
<path d="M32.0742 22.818C26.6011 22.818 22.1484 27.2706 22.1484 32.7438C22.1484 38.2169 26.6011 42.6696 32.0742 42.6696C37.5473 42.6696 42 38.2169 42 32.7438C42 27.2706 37.5473 22.818 32.0742 22.818ZM32.0742 39.3883C28.4105 39.3883 25.4297 36.4076 25.4297 32.7438C25.4297 29.0799 28.4105 26.0992 32.0742 26.0992C35.738 26.0992 38.7188 29.0799 38.7188 32.7438C38.7188 36.4076 35.738 39.3883 32.0742 39.3883Z" fill="#1C4A97"/>
<path d="M34.4531 31.1031H33.7148V29.3805C33.7148 28.4744 32.9803 27.7399 32.0742 27.7399C31.1681 27.7399 30.4336 28.4744 30.4336 29.3805V32.7438C30.4336 33.6499 31.1681 34.3844 32.0742 34.3844H34.4531C35.3592 34.3844 36.0938 33.6499 36.0938 32.7438C36.0938 31.8377 35.3592 31.1031 34.4531 31.1031Z" fill="#1C4A97"/>
<path d="M24.5273 19.5367C25.4334 19.5367 26.168 18.8022 26.168 17.8961C26.168 16.99 25.4334 16.2555 24.5273 16.2555C23.6213 16.2555 22.8867 16.99 22.8867 17.8961C22.8867 18.8022 23.6213 19.5367 24.5273 19.5367Z" fill="#1C4A97"/>
<path d="M17.3906 26.6735C18.2967 26.6735 19.0312 25.9389 19.0312 25.0328C19.0312 24.1267 18.2967 23.3922 17.3906 23.3922C16.4845 23.3922 15.75 24.1267 15.75 25.0328C15.75 25.9389 16.4845 26.6735 17.3906 26.6735Z" fill="#1C4A97"/>
<path d="M10.2539 19.5367C11.16 19.5367 11.8945 18.8022 11.8945 17.8961C11.8945 16.99 11.16 16.2555 10.2539 16.2555C9.34781 16.2555 8.61328 16.99 8.61328 17.8961C8.61328 18.8022 9.34781 19.5367 10.2539 19.5367Z" fill="#1C4A97"/>
<path d="M10.2539 26.6735C11.16 26.6735 11.8945 25.9389 11.8945 25.0328C11.8945 24.1267 11.16 23.3922 10.2539 23.3922C9.34781 23.3922 8.61328 24.1267 8.61328 25.0328C8.61328 25.9389 9.34781 26.6735 10.2539 26.6735Z" fill="#1C4A97"/>
<path d="M10.2539 33.8102C11.16 33.8102 11.8945 33.0756 11.8945 32.1696C11.8945 31.2635 11.16 30.5289 10.2539 30.5289C9.34781 30.5289 8.61328 31.2635 8.61328 32.1696C8.61328 33.0756 9.34781 33.8102 10.2539 33.8102Z" fill="#1C4A97"/>
<path d="M17.3906 33.8102C18.2967 33.8102 19.0312 33.0756 19.0312 32.1696C19.0312 31.2635 18.2967 30.5289 17.3906 30.5289C16.4845 30.5289 15.75 31.2635 15.75 32.1696C15.75 33.0756 16.4845 33.8102 17.3906 33.8102Z" fill="#1C4A97"/>
<path d="M17.3906 19.5367C18.2967 19.5367 19.0312 18.8022 19.0312 17.8961C19.0312 16.99 18.2967 16.2555 17.3906 16.2555C16.4845 16.2555 15.75 16.99 15.75 17.8961C15.75 18.8022 16.4845 19.5367 17.3906 19.5367Z" fill="#1C4A97"/>
</svg>
