<svg width="21" height="20" viewBox="0 0 21 20" fill="none" xmlns="http://www.w3.org/2000/svg">
<path d="M5.57799 9.35863C5.52619 9.02482 5.49932 8.68285 5.49932 8.33464C5.49932 4.65274 8.50372 1.66797 12.2098 1.66797C15.916 1.66797 18.9204 4.65274 18.9204 8.33464C18.9204 9.16636 18.7671 9.96251 18.487 10.6967C18.4288 10.8492 18.3997 10.9255 18.3865 10.985C18.3734 11.044 18.3684 11.0854 18.367 11.1458C18.3655 11.2068 18.3738 11.2739 18.3903 11.4082L18.7258 14.1334C18.7621 14.4284 18.7803 14.5759 18.7312 14.6832C18.6882 14.7771 18.6118 14.8517 18.5169 14.8926C18.4086 14.9391 18.2615 14.9176 17.9674 14.8745L15.3131 14.4854C15.1745 14.4651 15.1052 14.4549 15.042 14.4553C14.9796 14.4556 14.9364 14.4602 14.8753 14.4731C14.8135 14.4861 14.7346 14.5156 14.5768 14.5747C13.8407 14.8504 13.043 15.0013 12.2098 15.0013C11.8614 15.0013 11.5191 14.9749 11.1849 14.924M6.859 18.3346C9.32974 18.3346 11.3327 16.2826 11.3327 13.7513C11.3327 11.22 9.32974 9.16797 6.859 9.16797C4.38825 9.16797 2.38531 11.22 2.38531 13.7513C2.38531 14.2601 2.46625 14.7496 2.61564 15.2069C2.67879 15.4002 2.71037 15.4969 2.72073 15.5629C2.73155 15.6319 2.73344 15.6706 2.72942 15.7402C2.72556 15.807 2.70886 15.8824 2.67547 16.0332L2.16602 18.3346L4.66168 17.9938C4.7979 17.9752 4.86601 17.9659 4.92549 17.9663C4.98811 17.9667 5.02135 17.9701 5.08277 17.9824C5.1411 17.994 5.22782 18.0246 5.40124 18.0858C5.85818 18.2471 6.3486 18.3346 6.859 18.3346Z" stroke="white" stroke-width="1.66667" stroke-linecap="round" stroke-linejoin="round"/>
</svg>
