<svg width="42" height="42" viewBox="0 0 42 42" fill="none" xmlns="http://www.w3.org/2000/svg">
<path d="M41.8487 32.6332L39.4094 25.534C40.5852 23.1303 41.2066 20.457 41.2108 17.7673C41.218 13.0905 39.4086 8.66842 36.1157 5.3158C32.8221 1.96253 28.4333 0.0749041 23.7575 0.000829889C18.909 -0.0757873 14.3517 1.76844 10.9255 5.19456C7.62178 8.4982 5.78937 12.8535 5.73137 17.5076C2.47522 19.9592 0.553311 23.7814 0.559628 27.8641C0.562663 29.7746 0.992671 31.6737 1.80749 33.391L0.127241 38.2807C-0.161591 39.1213 0.0493933 40.034 0.677917 40.6625C1.12023 41.1049 1.70339 41.3404 2.30312 41.3404C2.55545 41.3404 2.81073 41.2987 3.05969 41.2132L7.94949 39.5329C9.66682 40.3477 11.5659 40.7777 13.4764 40.7808H13.4968C17.6402 40.7806 21.4915 38.8092 23.9342 35.4732C26.4761 35.4063 28.9911 34.7909 31.2647 33.6787L38.3641 36.1181C38.6533 36.2179 38.9571 36.269 39.263 36.2693C39.9757 36.2693 40.6687 35.9894 41.1945 35.4636C41.9413 34.7167 42.192 33.6322 41.8487 32.6332ZM13.4966 38.2808H13.4803C11.7893 38.2783 10.11 37.8614 8.62437 37.0753C8.47327 36.9954 8.30739 36.9473 8.13698 36.9341C7.96658 36.9208 7.79525 36.9426 7.63359 36.9981L2.6196 38.721L4.3425 33.7071C4.39803 33.5454 4.41983 33.3741 4.40654 33.2037C4.39325 33.0333 4.34515 32.8674 4.26522 32.7163C3.4792 31.2305 3.06232 29.5514 3.05969 27.8603C3.05551 25.1402 4.11363 22.562 5.96401 20.6315C6.56842 24.316 8.32446 27.7113 11.0464 30.3849C13.7483 33.0387 17.1445 34.7284 20.809 35.2808C18.8741 37.1879 16.2658 38.2808 13.4966 38.2808ZM39.4265 33.6958C39.3554 33.7669 39.2711 33.7863 39.1762 33.7537L31.5762 31.1421C31.4146 31.0865 31.2433 31.0647 31.0729 31.078C30.9025 31.0913 30.7366 31.1394 30.5855 31.2194C28.4156 32.3673 25.9635 32.9762 23.4942 32.9799H23.4705C15.1966 32.9799 8.36236 26.2588 8.23127 17.9868C8.16524 13.8209 9.74992 9.90561 12.6933 6.96225C15.6366 4.01888 19.5526 2.43478 23.7179 2.5004C31.9979 2.63174 38.7236 9.47864 38.7108 17.7634C38.7069 20.2327 38.0982 22.6849 36.9503 24.8547C36.8704 25.0058 36.8223 25.1716 36.809 25.342C36.7957 25.5124 36.8175 25.6838 36.8731 25.8454L39.4845 33.4455C39.5171 33.5406 39.4976 33.6249 39.4265 33.6958Z" fill="#1C4A97"/>
<path d="M30.9171 11.1139H16.0235C15.3331 11.1139 14.7735 11.6736 14.7735 12.3639C14.7735 13.0543 15.3332 13.6139 16.0235 13.6139H30.9171C31.6075 13.6139 32.1671 13.0542 32.1671 12.3639C32.1671 11.6736 31.6075 11.1139 30.9171 11.1139ZM30.9171 16.2549H16.0235C15.3331 16.2549 14.7735 16.8146 14.7735 17.5049C14.7735 18.1952 15.3332 18.7549 16.0235 18.7549H30.9171C31.6075 18.7549 32.1671 18.1952 32.1671 17.5049C32.1671 16.8146 31.6075 16.2549 30.9171 16.2549ZM25.1841 21.3957H16.0234C15.3331 21.3957 14.7734 21.9554 14.7734 22.6457C14.7734 23.3361 15.3331 23.8957 16.0234 23.8957H25.184C25.8744 23.8957 26.434 23.336 26.434 22.6457C26.434 21.9554 25.8745 21.3957 25.1841 21.3957Z" fill="#1C4A97"/>
</svg>
