<svg width="20" height="20" viewBox="0 0 20 20" fill="none" xmlns="http://www.w3.org/2000/svg">
<path d="M3.33203 15.833V14.1664H4.99868V8.33309C4.99868 7.18033 5.3459 6.15603 6.04033 5.26021C6.73477 4.36439 7.63753 3.77759 8.74863 3.49981V2.91649C8.74863 2.56927 8.87016 2.27414 9.11321 2.03108C9.35626 1.78803 9.6514 1.6665 9.99862 1.6665C10.3458 1.6665 10.641 1.78803 10.884 2.03108C11.1271 2.27414 11.2486 2.56927 11.2486 2.91649V3.49981C12.3597 3.77759 13.2625 4.36439 13.9569 5.26021C14.6513 6.15603 14.9986 7.18033 14.9986 8.33309V14.1664H16.6652V15.833H3.33203ZM9.99862 18.333C9.54029 18.333 9.14793 18.1698 8.82155 17.8434C8.49516 17.517 8.33197 17.1247 8.33197 16.6663H11.6653C11.6653 17.1247 11.5021 17.517 11.1757 17.8434C10.8493 18.1698 10.4569 18.333 9.99862 18.333ZM6.66532 14.1664H13.3319V8.33309C13.3319 7.41643 13.0055 6.63172 12.3528 5.97895C11.7 5.32618 10.9153 4.9998 9.99862 4.9998C9.08196 4.9998 8.29725 5.32618 7.64448 5.97895C6.99171 6.63172 6.66532 7.41643 6.66532 8.33309V14.1664Z" fill="#8D8D8D"/>
<g clip-path="url(#clip0_1117_32435)">
<circle cx="14.5" cy="4.99972" r="2.99996" fill="#EC2224"/>
</g>
<defs>
<clipPath id="clip0_1117_32435">
<rect width="5.99993" height="5.99993" fill="white" transform="translate(11.5 1.99976)"/>
</clipPath>
</defs>
</svg>
