<svg width="33" height="37" viewBox="0 0 33 37" fill="none" xmlns="http://www.w3.org/2000/svg">
<mask id="mask0_247_104972" style="mask-type:alpha" maskUnits="userSpaceOnUse" x="0" y="0" width="33" height="37">
<path d="M29.9118 36.2353H3.08824C1.65879 36.2353 0.5 35.0765 0.5 33.6471V2.58824C0.5 1.15879 1.65879 0 3.08824 0H20.5L32.5 12V33.6471C32.5 35.0765 31.3412 36.2353 29.9118 36.2353Z" fill="url(#paint0_linear_247_104972)"/>
</mask>
<g mask="url(#mask0_247_104972)">
<path d="M29.9118 36.2353H3.08824C1.65879 36.2353 0.5 35.0765 0.5 33.6471V2.58824C0.5 1.15879 1.65879 0 3.08824 0H20.5L32.5 12V33.6471C32.5 35.0765 31.3412 36.2353 29.9118 36.2353Z" fill="url(#paint1_linear_247_104972)"/>
<mask id="path-3-outside-1_247_104972" maskUnits="userSpaceOnUse" x="7.77344" y="18.2734" width="21" height="8" fill="black">
<rect fill="white" x="7.77344" y="18.2734" width="21" height="8"/>
<path d="M8.76835 25.2734V19.1643H11.0549C11.5727 19.1643 12.0178 19.2487 12.3902 19.4174C12.7625 19.5803 13.0476 19.8189 13.2454 20.1331C13.4491 20.4414 13.5509 20.8167 13.5509 21.2589C13.5509 21.6894 13.4491 22.0618 13.2454 22.376C13.0476 22.6843 12.7625 22.9229 12.3902 23.0916C12.0178 23.2603 11.5727 23.3447 11.0549 23.3447H9.12616L9.41416 23.0393V25.2734H8.76835ZM9.41416 23.0916L9.12616 22.7774H11.0374C11.6483 22.7774 12.1109 22.6465 12.4251 22.3847C12.7451 22.1171 12.9051 21.7418 12.9051 21.2589C12.9051 20.7702 12.7451 20.392 12.4251 20.1243C12.1109 19.8567 11.6483 19.7229 11.0374 19.7229H9.12616L9.41416 19.4174V23.0916ZM15.5582 25.2734V19.1643H18.0455C18.6971 19.1643 19.2673 19.2953 19.7561 19.5571C20.2506 19.8131 20.6346 20.1709 20.9081 20.6305C21.1815 21.0902 21.3182 21.6196 21.3182 22.2189C21.3182 22.8182 21.1815 23.3476 20.9081 23.8073C20.6346 24.2669 20.2506 24.6276 19.7561 24.8894C19.2673 25.1454 18.6971 25.2734 18.0455 25.2734H15.5582ZM16.2041 24.7149H18.0106C18.5517 24.7149 19.0201 24.6102 19.4157 24.4007C19.8171 24.1854 20.1284 23.8916 20.3495 23.5193C20.5706 23.1411 20.6811 22.7076 20.6811 22.2189C20.6811 21.7243 20.5706 21.2909 20.3495 20.9185C20.1284 20.5462 19.8171 20.2553 19.4157 20.0458C19.0201 19.8305 18.5517 19.7229 18.0106 19.7229H16.2041V24.7149ZM23.9554 22.1229H27.1845V22.6814H23.9554V22.1229ZM24.0252 25.2734H23.3794V19.1643H27.5685V19.7229H24.0252V25.2734Z"/>
</mask>
<path d="M8.76835 25.2734V19.1643H11.0549C11.5727 19.1643 12.0178 19.2487 12.3902 19.4174C12.7625 19.5803 13.0476 19.8189 13.2454 20.1331C13.4491 20.4414 13.5509 20.8167 13.5509 21.2589C13.5509 21.6894 13.4491 22.0618 13.2454 22.376C13.0476 22.6843 12.7625 22.9229 12.3902 23.0916C12.0178 23.2603 11.5727 23.3447 11.0549 23.3447H9.12616L9.41416 23.0393V25.2734H8.76835ZM9.41416 23.0916L9.12616 22.7774H11.0374C11.6483 22.7774 12.1109 22.6465 12.4251 22.3847C12.7451 22.1171 12.9051 21.7418 12.9051 21.2589C12.9051 20.7702 12.7451 20.392 12.4251 20.1243C12.1109 19.8567 11.6483 19.7229 11.0374 19.7229H9.12616L9.41416 19.4174V23.0916ZM15.5582 25.2734V19.1643H18.0455C18.6971 19.1643 19.2673 19.2953 19.7561 19.5571C20.2506 19.8131 20.6346 20.1709 20.9081 20.6305C21.1815 21.0902 21.3182 21.6196 21.3182 22.2189C21.3182 22.8182 21.1815 23.3476 20.9081 23.8073C20.6346 24.2669 20.2506 24.6276 19.7561 24.8894C19.2673 25.1454 18.6971 25.2734 18.0455 25.2734H15.5582ZM16.2041 24.7149H18.0106C18.5517 24.7149 19.0201 24.6102 19.4157 24.4007C19.8171 24.1854 20.1284 23.8916 20.3495 23.5193C20.5706 23.1411 20.6811 22.7076 20.6811 22.2189C20.6811 21.7243 20.5706 21.2909 20.3495 20.9185C20.1284 20.5462 19.8171 20.2553 19.4157 20.0458C19.0201 19.8305 18.5517 19.7229 18.0106 19.7229H16.2041V24.7149ZM23.9554 22.1229H27.1845V22.6814H23.9554V22.1229ZM24.0252 25.2734H23.3794V19.1643H27.5685V19.7229H24.0252V25.2734Z" fill="white"/>
<path d="M8.76835 25.2734H8.53305V25.5087H8.76835V25.2734ZM8.76835 19.1643V18.9291H8.53305V19.1643H8.76835ZM12.3902 19.4174L12.293 19.6318L12.2959 19.633L12.3902 19.4174ZM13.2454 20.1331L13.0463 20.2585L13.0491 20.2627L13.2454 20.1331ZM13.2454 22.376L13.048 22.248L13.0474 22.2489L13.2454 22.376ZM12.3902 23.0916L12.4873 23.3059L12.3902 23.0916ZM9.12616 23.3447L8.95497 23.1833L8.58093 23.58H9.12616V23.3447ZM9.41416 23.0393H9.64946V22.4467L9.24297 22.8778L9.41416 23.0393ZM9.41416 25.2734V25.5087H9.64946V25.2734H9.41416ZM9.41416 23.0916L9.24072 23.2506L9.64946 23.6965V23.0916H9.41416ZM9.12616 22.7774V22.5421H8.59129L8.95272 22.9364L9.12616 22.7774ZM12.4251 22.3847L12.5757 22.5655L12.576 22.5652L12.4251 22.3847ZM12.4251 20.1243L12.2725 20.3035L12.2741 20.3048L12.4251 20.1243ZM9.12616 19.7229L8.95497 19.5615L8.58093 19.9582H9.12616V19.7229ZM9.41416 19.4174H9.64946V18.8249L9.24297 19.256L9.41416 19.4174ZM9.00364 25.2734V19.1643H8.53305V25.2734H9.00364ZM8.76835 19.3996H11.0549V18.9291H8.76835V19.3996ZM11.0549 19.3996C11.5478 19.3996 11.9582 19.48 12.2931 19.6318L12.4873 19.2031C12.0774 19.0174 11.5976 18.9291 11.0549 18.9291V19.3996ZM12.2959 19.633C12.6293 19.7789 12.876 19.9879 13.0463 20.2584L13.4446 20.0077C13.2192 19.6499 12.8957 19.3818 12.4845 19.2019L12.2959 19.633ZM13.0491 20.2627C13.2227 20.5256 13.3156 20.8536 13.3156 21.2589H13.7862C13.7862 20.7798 13.6755 20.3573 13.4418 20.0034L13.0491 20.2627ZM13.3156 21.2589C13.3156 21.651 13.2234 21.9774 13.048 22.248L13.4429 22.504C13.6748 22.1462 13.7862 21.7279 13.7862 21.2589H13.3156ZM13.0474 22.2489C12.8769 22.5147 12.629 22.7251 12.2931 22.8773L12.4873 23.3059C12.896 23.1207 13.2184 22.854 13.4435 22.503L13.0474 22.2489ZM12.2931 22.8773C11.9582 23.029 11.5478 23.1094 11.0549 23.1094V23.58C11.5976 23.58 12.0774 23.4917 12.4873 23.3059L12.2931 22.8773ZM11.0549 23.1094H9.12616V23.58H11.0549V23.1094ZM9.29736 23.5061L9.58536 23.2007L9.24297 22.8778L8.95497 23.1833L9.29736 23.5061ZM9.17887 23.0393V25.2734H9.64946V23.0393H9.17887ZM9.41416 25.0381H8.76835V25.5087H9.41416V25.0381ZM9.58761 22.9326L9.29961 22.6184L8.95272 22.9364L9.24072 23.2506L9.58761 22.9326ZM9.12616 23.0127H11.0374V22.5421H9.12616V23.0127ZM11.0374 23.0127C11.6772 23.0127 12.2027 22.8763 12.5757 22.5655L12.2744 22.204C12.0191 22.4168 11.6195 22.5421 11.0374 22.5421V23.0127ZM12.576 22.5652C12.9582 22.2456 13.1404 21.7992 13.1404 21.2589H12.6698C12.6698 21.6844 12.5319 21.9886 12.2741 22.2042L12.576 22.5652ZM13.1404 21.2589C13.1404 20.7138 12.9589 20.2641 12.576 19.9439L12.2741 20.3048C12.5313 20.5199 12.6698 20.8266 12.6698 21.2589H13.1404ZM12.5777 19.9452C12.2046 19.6274 11.6782 19.4876 11.0374 19.4876V19.9582C11.6185 19.9582 12.0172 20.086 12.2725 20.3035L12.5777 19.9452ZM11.0374 19.4876H9.12616V19.9582H11.0374V19.4876ZM9.29736 19.8843L9.58536 19.5789L9.24297 19.256L8.95497 19.5615L9.29736 19.8843ZM9.17887 19.4174V23.0916H9.64946V19.4174H9.17887ZM15.5582 25.2734H15.3229V25.5087H15.5582V25.2734ZM15.5582 19.1643V18.9291H15.3229V19.1643H15.5582ZM19.7561 19.5571L19.6449 19.7645L19.6479 19.766L19.7561 19.5571ZM20.9081 20.6305L21.1103 20.5102V20.5102L20.9081 20.6305ZM20.9081 23.8073L21.1103 23.9276L20.9081 23.8073ZM19.7561 24.8894L19.8652 25.0979L19.8661 25.0974L19.7561 24.8894ZM16.2041 24.7149H15.9688V24.9502H16.2041V24.7149ZM19.4157 24.4007L19.5258 24.6087L19.5269 24.6081L19.4157 24.4007ZM20.3495 23.5193L20.5518 23.6394L20.5526 23.638L20.3495 23.5193ZM20.3495 20.9185L20.5518 20.7984L20.3495 20.9185ZM19.4157 20.0458L19.3032 20.2525L19.3068 20.2544L19.4157 20.0458ZM16.2041 19.7229V19.4876H15.9688V19.7229H16.2041ZM15.7935 25.2734V19.1643H15.3229V25.2734H15.7935ZM15.5582 19.3996H18.0455V18.9291H15.5582V19.3996ZM18.0455 19.3996C18.6652 19.3996 19.1959 19.5239 19.6449 19.7645L19.8672 19.3497C19.3387 19.0666 18.7291 18.9291 18.0455 18.9291V19.3996ZM19.6479 19.766C20.1051 20.0027 20.4558 20.3305 20.7058 20.7508L21.1103 20.5102C20.8134 20.0112 20.3961 19.6234 19.8642 19.3481L19.6479 19.766ZM20.7058 20.7508C20.9551 21.1698 21.0829 21.6567 21.0829 22.2189H21.5535C21.5535 21.5825 21.4079 21.0105 21.1103 20.5102L20.7058 20.7508ZM21.0829 22.2189C21.0829 22.781 20.9551 23.268 20.7058 23.687L21.1103 23.9276C21.4079 23.4273 21.5535 22.8553 21.5535 22.2189H21.0829ZM20.7058 23.687C20.4555 24.1077 20.1042 24.4389 19.646 24.6815L19.8661 25.0974C20.397 24.8163 20.8137 24.4261 21.1103 23.9276L20.7058 23.687ZM19.6469 24.681C19.1974 24.9164 18.666 25.0381 18.0455 25.0381V25.5087C18.7283 25.5087 19.3372 25.3744 19.8652 25.0979L19.6469 24.681ZM18.0455 25.0381H15.5582V25.5087H18.0455V25.0381ZM16.2041 24.9502H18.0106V24.4796H16.2041V24.9502ZM18.0106 24.9502C18.5821 24.9502 19.0898 24.8395 19.5258 24.6087L19.3056 24.1928C18.9503 24.3809 18.5213 24.4796 18.0106 24.4796V24.9502ZM19.5269 24.6081C19.964 24.3737 20.3077 24.0505 20.5518 23.6394L20.1472 23.3991C19.9491 23.7327 19.6702 23.9972 19.3045 24.1933L19.5269 24.6081ZM20.5526 23.638C20.7972 23.2198 20.9164 22.7444 20.9164 22.2189H20.4458C20.4458 22.6708 20.344 23.0624 20.1464 23.4005L20.5526 23.638ZM20.9164 22.2189C20.9164 21.6882 20.7974 21.212 20.5518 20.7984L20.1472 21.0387C20.3438 21.3697 20.4458 21.7605 20.4458 22.2189H20.9164ZM20.5518 20.7984C20.3074 20.3867 19.9629 20.0659 19.5245 19.8372L19.3068 20.2544C19.6714 20.4446 19.9495 20.7057 20.1472 21.0387L20.5518 20.7984ZM19.5281 19.8391C19.0917 19.6016 18.5831 19.4876 18.0106 19.4876V19.9582C18.5203 19.9582 18.9484 20.0594 19.3032 20.2525L19.5281 19.8391ZM18.0106 19.4876H16.2041V19.9582H18.0106V19.4876ZM15.9688 19.7229V24.7149H16.4393V19.7229H15.9688ZM23.9554 22.1229V21.8876H23.7201V22.1229H23.9554ZM27.1845 22.1229H27.4198V21.8876H27.1845V22.1229ZM27.1845 22.6814V22.9167H27.4198V22.6814H27.1845ZM23.9554 22.6814H23.7201V22.9167H23.9554V22.6814ZM24.0252 25.2734V25.5087H24.2605V25.2734H24.0252ZM23.3794 25.2734H23.1441V25.5087H23.3794V25.2734ZM23.3794 19.1643V18.9291H23.1441V19.1643H23.3794ZM27.5685 19.1643H27.8038V18.9291H27.5685V19.1643ZM27.5685 19.7229V19.9582H27.8038V19.7229H27.5685ZM24.0252 19.7229V19.4876H23.7899V19.7229H24.0252ZM23.9554 22.3582H27.1845V21.8876H23.9554V22.3582ZM26.9492 22.1229V22.6814H27.4198V22.1229H26.9492ZM27.1845 22.4461H23.9554V22.9167H27.1845V22.4461ZM24.1907 22.6814V22.1229H23.7201V22.6814H24.1907ZM24.0252 25.0381H23.3794V25.5087H24.0252V25.0381ZM23.6147 25.2734V19.1643H23.1441V25.2734H23.6147ZM23.3794 19.3996H27.5685V18.9291H23.3794V19.3996ZM27.3332 19.1643V19.7229H27.8038V19.1643H27.3332ZM27.5685 19.4876H24.0252V19.9582H27.5685V19.4876ZM23.7899 19.7229V25.2734H24.2605V19.7229H23.7899Z" fill="white" mask="url(#path-3-outside-1_247_104972)"/>
<g filter="url(#filter0_d_247_104972)">
<path d="M32.5 12H23.0882C21.6588 12 20.5 10.8412 20.5 9.41177V0L32.5 12Z" fill="url(#paint2_linear_247_104972)"/>
</g>
</g>
<defs>
<filter id="filter0_d_247_104972" x="17.7941" y="-2.82353" width="17.8824" height="17.8824" filterUnits="userSpaceOnUse" color-interpolation-filters="sRGB">
<feFlood flood-opacity="0" result="BackgroundImageFix"/>
<feColorMatrix in="SourceAlpha" type="matrix" values="0 0 0 0 0 0 0 0 0 0 0 0 0 0 0 0 0 0 127 0" result="hardAlpha"/>
<feOffset dx="0.235294" dy="0.117647"/>
<feGaussianBlur stdDeviation="1.47059"/>
<feColorMatrix type="matrix" values="0 0 0 0 0 0 0 0 0 0 0 0 0 0 0 0 0 0 0.33 0"/>
<feBlend mode="normal" in2="BackgroundImageFix" result="effect1_dropShadow_247_104972"/>
<feBlend mode="normal" in="SourceGraphic" in2="effect1_dropShadow_247_104972" result="shape"/>
</filter>
<linearGradient id="paint0_linear_247_104972" x1="16.5" y1="0" x2="16.5" y2="36.2353" gradientUnits="userSpaceOnUse">
<stop stop-color="#FF7979"/>
<stop offset="1" stop-color="#E85555"/>
</linearGradient>
<linearGradient id="paint1_linear_247_104972" x1="16.5" y1="0" x2="16.5" y2="36.2353" gradientUnits="userSpaceOnUse">
<stop stop-color="#FF7981"/>
<stop offset="1" stop-color="#E85567"/>
</linearGradient>
<linearGradient id="paint2_linear_247_104972" x1="26.5" y1="0" x2="26.5" y2="12" gradientUnits="userSpaceOnUse">
<stop stop-color="#D03954"/>
<stop offset="1" stop-color="#C02A3C"/>
</linearGradient>
</defs>
</svg>
