<svg width="18" height="18" viewBox="0 0 18 18" fill="none" xmlns="http://www.w3.org/2000/svg">
<path d="M6.72415 6.72134C7.22435 7.76316 7.90623 8.7396 8.76979 9.60316C9.63335 10.4667 10.6098 11.1486 11.6516 11.6488C11.7412 11.6918 11.786 11.7133 11.8427 11.7299C12.0442 11.7886 12.2916 11.7464 12.4623 11.6242C12.5103 11.5898 12.5514 11.5488 12.6335 11.4666C12.8848 11.2154 13.0104 11.0897 13.1367 11.0076C13.6131 10.6978 14.2273 10.6978 14.7037 11.0076C14.83 11.0897 14.9557 11.2154 15.2069 11.4666L15.347 11.6067C15.7289 11.9886 15.9199 12.1796 16.0236 12.3847C16.2299 12.7926 16.2299 13.2743 16.0236 13.6822C15.9199 13.8873 15.7289 14.0782 15.347 14.4602L15.2337 14.5735C14.8531 14.9541 14.6627 15.1444 14.404 15.2898C14.1169 15.4511 13.6709 15.567 13.3416 15.5661C13.0448 15.5652 12.842 15.5076 12.4363 15.3925C10.2563 14.7737 8.19915 13.6062 6.48294 11.89C4.76674 10.1738 3.59925 8.11665 2.98048 5.9366C2.86534 5.53094 2.80777 5.32811 2.80689 5.03133C2.80591 4.70201 2.92188 4.25607 3.08317 3.96895C3.22852 3.7102 3.41884 3.51989 3.79947 3.13925L3.91276 3.02596C4.2947 2.64402 4.48567 2.45305 4.69077 2.34932C5.09867 2.143 5.58038 2.143 5.98827 2.34931C6.19337 2.45305 6.38434 2.64402 6.76628 3.02596L6.90633 3.16601C7.15759 3.41727 7.28322 3.5429 7.36536 3.66923C7.6751 4.14564 7.6751 4.75981 7.36535 5.23622C7.28322 5.36255 7.15759 5.48818 6.90633 5.73944C6.82418 5.82159 6.7831 5.86267 6.74872 5.91069C6.62653 6.08132 6.58435 6.32874 6.64308 6.53022C6.65961 6.58692 6.68112 6.63173 6.72415 6.72134Z" stroke="white" stroke-width="1.43737" stroke-linecap="round" stroke-linejoin="round"/>
</svg>
