<svg width="21" height="20" viewBox="0 0 21 20" fill="none" xmlns="http://www.w3.org/2000/svg">
<path d="M10.0827 4.1665H10.4447C12.9841 4.1665 14.2537 4.1665 14.7357 4.62258C15.1523 5.01681 15.337 5.59757 15.2245 6.16001C15.0944 6.81068 14.0578 7.54388 11.9846 9.01028L8.59745 11.4061C6.52427 12.8725 5.48767 13.6057 5.35755 14.2563C5.24506 14.8188 5.4297 15.3995 5.84632 15.7938C6.32829 16.2498 7.59798 16.2498 10.1374 16.2498H10.916M7.16602 4.1665C7.16602 5.54722 6.04673 6.6665 4.66602 6.6665C3.2853 6.6665 2.16602 5.54722 2.16602 4.1665C2.16602 2.78579 3.2853 1.6665 4.66602 1.6665C6.04673 1.6665 7.16602 2.78579 7.16602 4.1665ZM18.8327 15.8332C18.8327 17.2139 17.7134 18.3332 16.3327 18.3332C14.952 18.3332 13.8327 17.2139 13.8327 15.8332C13.8327 14.4525 14.952 13.3332 16.3327 13.3332C17.7134 13.3332 18.8327 14.4525 18.8327 15.8332Z" stroke="#DFDFDF" stroke-width="1.66667" stroke-linecap="round" stroke-linejoin="round"/>
</svg>
