<svg width="42" height="43" viewBox="0 0 42 43" fill="none" xmlns="http://www.w3.org/2000/svg">
<g clip-path="url(#clip0_247_229982)">
<path d="M27.1698 20.4346C27.8519 20.4346 28.4048 20.9876 28.4048 21.6696C28.4048 22.3517 27.8519 22.9046 27.1698 22.9046H25.9351C23.8909 22.9046 22.2299 24.5669 22.2299 26.6096C22.2299 28.6561 23.8876 30.3145 25.9328 30.3145H35.8273C39.2348 30.3145 42.0001 33.0831 42.0001 36.4895C42.0001 39.8991 39.2332 42.6644 35.824 42.6644H16.0549C15.3728 42.6644 14.8199 42.1115 14.8199 41.4294C14.8199 40.7473 15.3728 40.1944 16.0549 40.1944H35.824C37.8693 40.1944 39.5301 38.5347 39.5301 36.4895C39.5301 34.4466 37.87 32.7845 35.8272 32.7845H25.9327C22.5232 32.7845 19.7599 30.0199 19.7599 26.6096C19.7599 23.2031 22.5264 20.4346 25.9351 20.4346H27.1698ZM34.105 22.0254C33.8879 22.195 33.6203 22.2871 33.3448 22.2871C33.0693 22.2871 32.8017 22.195 32.5846 22.0254C32.4659 21.9315 32.3487 21.8358 32.233 21.7382C31.9343 21.4872 31.641 21.2298 31.3534 20.9661C30.4484 20.1383 29.5439 19.2141 28.6969 18.2128C26.2103 15.2732 24.6998 12.2757 24.6998 9.31965C24.6998 4.5452 28.5703 0.674683 33.3448 0.674683C38.1193 0.674683 41.9897 4.5452 41.9897 9.31965C41.9897 12.2757 40.4793 15.2732 37.9927 18.2128C37.1457 19.2141 36.2412 20.1383 35.3362 20.9661C35.0485 21.2298 34.7553 21.4872 34.4566 21.7382C34.3409 21.8358 34.2237 21.9315 34.105 22.0254ZM33.6691 19.1437C34.5008 18.3828 35.333 17.5325 36.1069 16.6177C38.2515 14.0823 39.5198 11.5655 39.5198 9.31973C39.5198 5.90938 36.7552 3.14478 33.3449 3.14478C29.9345 3.14478 27.1699 5.90938 27.1699 9.31973C27.1699 11.5655 28.4381 14.0824 30.5828 16.6177C31.3567 17.5326 32.1889 18.3829 33.0207 19.1437C33.128 19.2419 33.2361 19.3391 33.3449 19.4356C33.4537 19.3391 33.5618 19.2418 33.6691 19.1437ZM33.3448 13.0247C31.2986 13.0247 29.6398 11.3659 29.6398 9.31973C29.6398 7.27355 31.2986 5.61479 33.3448 5.61479C35.391 5.61479 37.0497 7.27355 37.0497 9.31973C37.0497 11.3659 35.391 13.0247 33.3448 13.0247ZM33.3448 10.5547C34.0269 10.5547 34.5798 10.0017 34.5798 9.31965C34.5798 8.63756 34.0269 8.08464 33.3448 8.08464C32.6627 8.08464 32.1098 8.63756 32.1098 9.31965C32.1098 10.0017 32.6627 10.5547 33.3448 10.5547ZM9.40513 42.4028C9.18802 42.5724 8.92043 42.6645 8.64493 42.6645C8.36943 42.6645 8.10184 42.5724 7.88472 42.4028C7.766 42.3089 7.64876 42.2132 7.53306 42.1156C7.23438 41.8646 6.94112 41.6072 6.65349 41.3436C5.74849 40.5157 4.84399 39.5916 3.99698 38.5902C1.51048 35.6506 0 32.6531 0 29.6971C0 24.9226 3.87044 21.0521 8.64497 21.0521C13.4195 21.0521 17.2899 24.9225 17.2899 29.6971C17.2899 32.6531 15.7795 35.6506 13.2929 38.5902C12.4459 39.5916 11.5414 40.5157 10.6364 41.3436C10.3487 41.6072 10.0555 41.8646 9.75679 42.1156C9.64111 42.2132 9.52387 42.309 9.40513 42.4028ZM8.96916 39.5211C9.80092 38.7602 10.6331 37.9099 11.407 36.9951C13.5516 34.4597 14.8199 31.9429 14.8199 29.6971C14.8199 26.2868 12.0553 23.5222 8.64497 23.5222C5.23461 23.5222 2.47001 26.2868 2.47001 29.6971C2.47001 31.9429 3.73824 34.4598 5.88291 36.9951C6.65685 37.91 7.48902 38.7603 8.32078 39.5211C8.42809 39.6193 8.53618 39.7166 8.64505 39.813C8.75384 39.7165 8.86188 39.6192 8.96916 39.5211ZM8.64497 33.402C6.59879 33.402 4.94003 31.7432 4.94003 29.6971C4.94003 27.6509 6.59879 25.9921 8.64497 25.9921C10.6911 25.9921 12.3499 27.6509 12.3499 29.6971C12.3499 31.7432 10.6911 33.402 8.64497 33.402ZM8.64497 30.9321C9.32705 30.9321 9.87997 30.3792 9.87997 29.6971C9.87997 29.015 9.32705 28.4621 8.64497 28.4621C7.96288 28.4621 7.40996 29.015 7.40996 29.6971C7.40996 30.3792 7.96288 30.9321 8.64497 30.9321Z" fill="#1C4A97"/>
</g>
<defs>
<clipPath id="clip0_247_229982">
<rect width="42" height="42" fill="white" transform="translate(0 0.669556)"/>
</clipPath>
</defs>
</svg>
