<svg width="21" height="20" viewBox="0 0 21 20" fill="none" xmlns="http://www.w3.org/2000/svg">
<path d="M10.4993 12.5013C11.8801 12.5013 12.9993 11.382 12.9993 10.0013C12.9993 8.62059 11.8801 7.5013 10.4993 7.5013C9.11864 7.5013 7.99935 8.62059 7.99935 10.0013C7.99935 11.382 9.11864 12.5013 10.4993 12.5013Z" stroke="#DFDFDF" stroke-width="1.66667" stroke-linecap="round" stroke-linejoin="round"/>
<path d="M16.1054 12.274C16.0046 12.5025 15.9745 12.756 16.019 13.0017C16.0636 13.2475 16.1808 13.4743 16.3554 13.6528L16.4009 13.6983C16.5417 13.839 16.6535 14.0061 16.7297 14.19C16.806 14.374 16.8452 14.5711 16.8452 14.7702C16.8452 14.9694 16.806 15.1665 16.7297 15.3505C16.6535 15.5344 16.5417 15.7015 16.4009 15.8422C16.2601 15.9831 16.093 16.0948 15.9091 16.1711C15.7252 16.2473 15.528 16.2866 15.3289 16.2866C15.1298 16.2866 14.9326 16.2473 14.7487 16.1711C14.5647 16.0948 14.3976 15.9831 14.2569 15.8422L14.2115 15.7968C14.0329 15.6221 13.8062 15.5049 13.5604 15.4604C13.3146 15.4158 13.0612 15.4459 12.8327 15.5468C12.6086 15.6428 12.4175 15.8022 12.2829 16.0055C12.1483 16.2087 12.0761 16.4469 12.0751 16.6907V16.8195C12.0751 17.2213 11.9155 17.6067 11.6313 17.8909C11.3472 18.175 10.9618 18.3346 10.56 18.3346C10.1581 18.3346 9.77273 18.175 9.48858 17.8909C9.20444 17.6067 9.0448 17.2213 9.0448 16.8195V16.7513C9.03894 16.5005 8.95777 16.2574 8.81186 16.0533C8.66594 15.8493 8.46203 15.6939 8.22662 15.6074C7.99812 15.5065 7.74466 15.4764 7.4989 15.521C7.25315 15.5656 7.02638 15.6827 6.84783 15.8574L6.80238 15.9028C6.66166 16.0437 6.49456 16.1554 6.31062 16.2317C6.12669 16.3079 5.92952 16.3472 5.73041 16.3472C5.5313 16.3472 5.33413 16.3079 5.1502 16.2317C4.96626 16.1554 4.79916 16.0437 4.65844 15.9028C4.51757 15.7621 4.40581 15.595 4.32956 15.4111C4.25331 15.2271 4.21407 15.03 4.21407 14.8308C4.21407 14.6317 4.25331 14.4346 4.32956 14.2506C4.40581 14.0667 4.51757 13.8996 4.65844 13.7589L4.70389 13.7134C4.87854 13.5349 4.9957 13.3081 5.04026 13.0624C5.08482 12.8166 5.05474 12.5631 4.95389 12.3346C4.85786 12.1106 4.69841 11.9195 4.49516 11.7849C4.29191 11.6503 4.05373 11.578 3.80996 11.5771H3.68117C3.27932 11.5771 2.89394 11.4174 2.60979 11.1333C2.32565 10.8491 2.16602 10.4638 2.16602 10.0619C2.16602 9.66006 2.32565 9.27468 2.60979 8.99053C2.89394 8.70639 3.27932 8.54676 3.68117 8.54676H3.74935C4.0001 8.54089 4.24329 8.45973 4.4473 8.31381C4.65131 8.1679 4.80671 7.96398 4.89329 7.72857C4.99413 7.50008 5.02422 7.24661 4.97966 7.00086C4.9351 6.7551 4.81794 6.52833 4.64329 6.34979L4.59783 6.30433C4.45696 6.16362 4.3452 5.99651 4.26896 5.81258C4.19271 5.62864 4.15346 5.43148 4.15346 5.23236C4.15346 5.03325 4.19271 4.83609 4.26896 4.65215C4.3452 4.46821 4.45696 4.30111 4.59783 4.16039C4.73855 4.01952 4.90565 3.90776 5.08959 3.83151C5.27353 3.75527 5.47069 3.71602 5.6698 3.71602C5.86892 3.71602 6.06608 3.75527 6.25002 3.83151C6.43395 3.90776 6.60106 4.01952 6.74177 4.16039L6.78723 4.20585C6.96577 4.3805 7.19254 4.49765 7.4383 4.54221C7.68405 4.58677 7.93752 4.55669 8.16602 4.45585H8.22662C8.45069 4.35981 8.64179 4.20036 8.77639 3.99711C8.91099 3.79386 8.98322 3.55569 8.9842 3.31191V3.18312C8.9842 2.78128 9.14383 2.39589 9.42798 2.11175C9.71212 1.8276 10.0975 1.66797 10.4993 1.66797C10.9012 1.66797 11.2866 1.8276 11.5707 2.11175C11.8549 2.39589 12.0145 2.78128 12.0145 3.18312V3.2513C12.0155 3.49508 12.0877 3.73325 12.2223 3.9365C12.3569 4.13975 12.548 4.29921 12.7721 4.39524C13.0006 4.49609 13.254 4.52617 13.4998 4.48161C13.7455 4.43705 13.9723 4.31989 14.1509 4.14524L14.1963 4.09979C14.337 3.95891 14.5041 3.84716 14.6881 3.77091C14.872 3.69466 15.0692 3.65541 15.2683 3.65541C15.4674 3.65541 15.6646 3.69466 15.8485 3.77091C16.0324 3.84716 16.1995 3.95891 16.3403 4.09979C16.4811 4.2405 16.5929 4.40761 16.6691 4.59154C16.7454 4.77548 16.7846 4.97264 16.7846 5.17176C16.7846 5.37087 16.7454 5.56803 16.6691 5.75197C16.5929 5.93591 16.4811 6.10301 16.3403 6.24373L16.2948 6.28918C16.1202 6.46773 16.003 6.6945 15.9584 6.94025C15.9139 7.186 15.944 7.43947 16.0448 7.66797V7.72857C16.1408 7.95264 16.3003 8.14374 16.5035 8.27834C16.7068 8.41294 16.945 8.48518 17.1887 8.48615H17.3175C17.7194 8.48615 18.1048 8.64578 18.3889 8.92993C18.673 9.21407 18.8327 9.59946 18.8327 10.0013C18.8327 10.4031 18.673 10.7885 18.3889 11.0727C18.1048 11.3568 17.7194 11.5165 17.3175 11.5165H17.2493C17.0056 11.5174 16.7674 11.5897 16.5641 11.7243C16.3609 11.8589 16.2014 12.05 16.1054 12.274Z" stroke="#DFDFDF" stroke-width="1.66667" stroke-linecap="round" stroke-linejoin="round"/>
</svg>
