<svg width="21" height="20" viewBox="0 0 21 20" fill="none" xmlns="http://www.w3.org/2000/svg">
<path d="M5.49935 5.0013L9.24935 8.7513M5.49935 5.0013H2.99935L2.16602 2.5013L2.99935 1.66797L5.49935 2.5013V5.0013ZM16.5485 2.28548L14.3588 4.47516C14.0288 4.80517 13.8638 4.97018 13.802 5.16045C13.7476 5.32782 13.7476 5.50811 13.802 5.67548C13.8638 5.86576 14.0288 6.03076 14.3588 6.36078L14.5565 6.55849C14.8866 6.88851 15.0516 7.05351 15.2418 7.11534C15.4092 7.16972 15.5895 7.16972 15.7569 7.11534C15.9471 7.05351 16.1121 6.88851 16.4422 6.55849L18.4904 4.51023C18.711 5.04704 18.8327 5.63496 18.8327 6.2513C18.8327 8.78261 16.7807 10.8346 14.2493 10.8346C13.9442 10.8346 13.646 10.8048 13.3575 10.7479C12.9524 10.668 12.7498 10.6281 12.627 10.6403C12.4965 10.6533 12.4321 10.6729 12.3164 10.7348C12.2076 10.793 12.0985 10.9022 11.8802 11.1204L5.91602 17.0846C5.22566 17.775 4.10637 17.775 3.41602 17.0846C2.72566 16.3943 2.72566 15.275 3.41602 14.5846L9.38021 8.62044C9.59849 8.40216 9.70764 8.29301 9.76586 8.18421C9.82776 8.06853 9.84734 8.00419 9.86035 7.87364C9.87258 7.75085 9.83263 7.54829 9.75274 7.14317C9.69584 6.85468 9.66602 6.55648 9.66602 6.2513C9.66602 3.72 11.718 1.66797 14.2493 1.66797C15.0873 1.66797 15.8727 1.89282 16.5485 2.28548ZM10.4994 12.5013L15.0827 17.0845C15.773 17.7749 16.8923 17.7749 17.5827 17.0845C18.273 16.3942 18.273 15.2749 17.5827 14.5845L13.8121 10.8141C13.5452 10.7888 13.2849 10.7406 13.0333 10.6716C12.7091 10.5826 12.3535 10.6472 12.1157 10.8849L10.4994 12.5013Z" stroke="#DFDFDF" stroke-width="1.66667" stroke-linecap="round" stroke-linejoin="round"/>
</svg>
