<svg width="21" height="20" viewBox="0 0 21 20" fill="none" xmlns="http://www.w3.org/2000/svg">
<path d="M12.166 5.8335H14.1137C14.3176 5.8335 14.4195 5.8335 14.5154 5.85652C14.6004 5.87694 14.6817 5.91061 14.7563 5.9563C14.8403 6.00783 14.9124 6.07989 15.0565 6.22402L18.4422 9.60964C18.5863 9.75376 18.6583 9.82583 18.7099 9.90993C18.7556 9.98449 18.7892 10.0658 18.8097 10.1508C18.8327 10.2467 18.8327 10.3486 18.8327 10.5524V12.9168C18.8327 13.3051 18.8327 13.4993 18.7692 13.6524C18.6847 13.8566 18.5224 14.0188 18.3183 14.1034C18.1651 14.1668 17.971 14.1668 17.5827 14.1668M13.416 14.1668H12.166M12.166 14.1668V6.00016C12.166 5.06674 12.166 4.60003 11.9844 4.24351C11.8246 3.92991 11.5696 3.67494 11.256 3.51515C10.8995 3.3335 10.4328 3.3335 9.49935 3.3335H4.83268C3.89926 3.3335 3.43255 3.3335 3.07603 3.51515C2.76243 3.67494 2.50746 3.92991 2.34767 4.24351C2.16602 4.60003 2.16602 5.06674 2.16602 6.00016V12.5002C2.16602 13.4206 2.91221 14.1668 3.83268 14.1668M12.166 14.1668H8.83268M8.83268 14.1668C8.83268 15.5475 7.71339 16.6668 6.33268 16.6668C4.95197 16.6668 3.83268 15.5475 3.83268 14.1668M8.83268 14.1668C8.83268 12.7861 7.71339 11.6668 6.33268 11.6668C4.95197 11.6668 3.83268 12.7861 3.83268 14.1668M17.5827 14.5835C17.5827 15.7341 16.6499 16.6668 15.4993 16.6668C14.3488 16.6668 13.416 15.7341 13.416 14.5835C13.416 13.4329 14.3488 12.5002 15.4993 12.5002C16.6499 12.5002 17.5827 13.4329 17.5827 14.5835Z" stroke="#DFDFDF" stroke-width="1.66667" stroke-linecap="round" stroke-linejoin="round"/>
</svg>
